<?xml version="1.0" encoding="UTF-8" standalone="no"?>
<svg
   xmlns:dc="http://purl.org/dc/elements/1.1/"
   xmlns:cc="http://creativecommons.org/ns#"
   xmlns:rdf="http://www.w3.org/1999/02/22-rdf-syntax-ns#"
   xmlns:svg="http://www.w3.org/2000/svg"
   xmlns="http://www.w3.org/2000/svg"
   viewBox="0 0 1319.7733 293.90668"
   height="293.90668"
   width="1319.7733"
   xml:space="preserve"
   id="svg2"
   version="1.1"><metadata
     id="metadata8"><rdf:RDF><cc:Work
         rdf:about=""><dc:format>image/svg+xml</dc:format><dc:type
           rdf:resource="http://purl.org/dc/dcmitype/StillImage" /></cc:Work></rdf:RDF></metadata><defs
     id="defs6" /><g
     transform="matrix(1.3333333,0,0,-1.3333333,0,293.90667)"
     id="g10"><g
       transform="scale(0.1)"
       id="g12"><path
         id="path14"
         style="fill:#ffffff;fill-opacity:1;fill-rule:nonzero;stroke:none"
         d="M 100.293,101.059 H 3049.74 V 2103.9 H 100.293 V 101.059" /><path
         id="path16"
         style="fill:#2a3c93;fill-opacity:1;fill-rule:nonzero;stroke:none"
         d="M 157.012,158.27 H 2993.03 v 1890.7 H 157.012 V 158.27" /><path
         id="path18"
         style="fill:#fbca07;fill-opacity:1;fill-rule:nonzero;stroke:none"
         d="m 1514.59,1637.02 59.84,43.67 59.85,-43.67 -22.78,70.63 60.79,43.67 h -74.93 l -22.93,71.48 -22.93,-71.56 -74.88,0.08 60.74,-43.67 -22.77,-70.63" /><path
         id="path20"
         style="fill:#fbca07;fill-opacity:1;fill-rule:nonzero;stroke:none"
         d="m 1204.9,1553.82 59.84,43.67 59.81,-43.67 -22.74,70.63 60.75,43.67 h -74.93 l -22.92,71.56 -22.93,-71.64 -74.89,0.08 60.74,-43.67 -22.73,-70.63" /><path
         id="path22"
         style="fill:#fbca07;fill-opacity:1;fill-rule:nonzero;stroke:none"
         d="m 1038.14,1512.57 -22.93,-71.64 -74.874,0.08 60.734,-43.67 -22.765,-70.63 59.835,43.67 59.84,-43.67 -22.77,70.63 60.74,43.67 h -74.88 l -22.93,71.56" /><path
         id="path24"
         style="fill:#fbca07;fill-opacity:1;fill-rule:nonzero;stroke:none"
         d="m 955.023,1061.08 59.807,-43.67 -22.736,70.62 60.736,43.68 h -74.877 l -22.93,71.56 -22.929,-71.72 -74.918,0.16 60.777,-43.68 -22.769,-70.62 59.839,43.67" /><path
         id="path26"
         style="fill:#fbca07;fill-opacity:1;fill-rule:nonzero;stroke:none"
         d="m 1061.07,821.48 -22.93,71.559 -22.93,-71.641 -74.874,0.082 60.734,-43.671 -22.765,-70.629 59.835,43.75 59.84,-43.75 -22.77,70.629 60.74,43.671 h -74.88" /><path
         id="path28"
         style="fill:#fbca07;fill-opacity:1;fill-rule:nonzero;stroke:none"
         d="m 1288.1,594.449 -22.93,71.481 -22.89,-71.559 -74.92,0.078 60.74,-43.668 -22.73,-70.633 59.84,43.672 59.8,-43.672 -22.73,70.633 60.74,43.668 h -74.92" /><path
         id="path30"
         style="fill:#fbca07;fill-opacity:1;fill-rule:nonzero;stroke:none"
         d="m 1597.4,512.18 -22.93,71.558 -22.89,-71.636 -74.92,0.078 60.74,-43.668 -22.73,-70.633 59.84,43.672 59.8,-43.672 -22.77,70.633 60.78,43.668 h -74.92" /><path
         id="path32"
         style="fill:#fbca07;fill-opacity:1;fill-rule:nonzero;stroke:none"
         d="m 1906.7,594.449 -22.89,71.481 -22.97,-71.559 -74.84,0.078 60.7,-43.668 -22.73,-70.633 59.84,43.672 59.84,-43.672 -22.81,70.633 60.78,43.668 h -74.92" /><path
         id="path34"
         style="fill:#fbca07;fill-opacity:1;fill-rule:nonzero;stroke:none"
         d="m 2133.81,821.48 -22.97,71.559 -22.97,-71.641 -74.84,0.082 60.78,-43.671 -22.81,-70.629 59.84,43.75 59.84,-43.75 -22.81,70.629 60.78,43.671 h -74.84" /><path
         id="path36"
         style="fill:#fbca07;fill-opacity:1;fill-rule:nonzero;stroke:none"
         d="M 2290.92,1132.57 H 2216 l -22.97,71.56 -22.89,-71.64 -74.92,0.08 60.78,-43.67 -22.74,-70.63 59.77,43.75 59.84,-43.75 -22.73,70.63 60.78,43.67" /><path
         id="path38"
         style="fill:#fbca07;fill-opacity:1;fill-rule:nonzero;stroke:none"
         d="m 2050.99,1327.65 59.84,43.67 59.85,-43.67 -22.81,70.63 60.78,43.59 h -74.85 l -22.97,71.56 -22.96,-71.64 -74.85,0.08 60.78,-43.59 -22.81,-70.63" /><path
         id="path40"
         style="fill:#fbca07;fill-opacity:1;fill-rule:nonzero;stroke:none"
         d="m 1884.67,1739.6 -22.89,-71.64 -74.92,0.16 60.7,-43.75 -22.73,-70.63 59.92,43.75 59.76,-43.75 -22.73,70.63 60.78,43.75 h -75 l -22.89,71.48" /><g
         transform="scale(10)"
         id="g42"><text
           id="text48"
           style="font-variant:normal;font-weight:bold;font-size:65px;font-family:Arial;-inkscape-font-specification:Arial-BoldMT;writing-mode:lr-tb;fill:#2a3c93;fill-opacity:1;fill-rule:nonzero;stroke:none"
           transform="matrix(1,0,0,-1,335.537,133.727)"><tspan
             id="tspan44"
             y="0"
             x="0 39.705112 79.409172 119.11329 158.81842 194.96883 234.67293 252.73253 292.43665">Funded by</tspan><tspan
             id="tspan46"
             y="78"
             x="0 21.645514 61.349625 97.500023 115.5586 158.91414 198.61824 223.91414 263.61826 303.32236 339.47275 375.62317 415.32727 433.38687 480.32727 520.03143 538.091 577.79504">the European Union</tspan></text>
</g></g></g></svg>